<svg height="128" viewBox="0 0 128 128" width="128" xmlns="http://www.w3.org/2000/svg"><path d="m56.23 102.59v9.27c0 .6-.49 1.09-1.09 1.09s-1.09-.49-1.09-1.09v-9.27c0-.6.49-1.09 1.09-1.09s1.09.49 1.09 1.09zm42.77-52.59c0 .66-.25 1.31-.75 1.81l-10.43 10.43c-1 1-2.63 1-3.62 0l-10.28-10.28v29.24c0 .6-.49 1.09-1.09 1.09s-1.09-.49-1.09-1.09v-31.87c0-.44.26-.84.67-1.01s.87-.08 1.19.24l12.13 12.13c.15.15.4.15.55 0l10.43-10.43c.15-.15.15-.4 0-.55l-32.39-32.39c-.09-.09-.21-.11-.29-.1-.16 0-.28.01-.37.1l-32.39 32.41c-.2.2-.2.35 0 .55l10.43 10.43c.15.15.4.15.55 0l12.13-12.13c.31-.31.78-.4 1.19-.24.41.17.67.57.67 1.01v43.66c0 .6-.49 1.09-1.09 1.09s-1.09-.49-1.09-1.09v-41.04l-10.28 10.28c-1 1-2.63 1-3.62 0l-10.43-10.43c-.97-.97-.97-2.66 0-3.62l32.39-32.41c.5-.5 1.18-.77 1.91-.74.65-.03 1.32.23 1.83.74l32.39 32.39c.5.5.75 1.16.75 1.81zm-25.08 40.26v9.02c0 .6-.49 1.09-1.09 1.09s-1.09-.49-1.09-1.09v-9.02c0-.6.49-1.09 1.09-1.09s1.09.49 1.09 1.09zm-8.85-22.48v37.23c0 .6-.49 1.09-1.09 1.09s-1.09-.49-1.09-1.09v-37.23c0-.6.49-1.09 1.09-1.09s1.09.49 1.09 1.09z"/></svg>