<svg height="128" viewBox="0 0 128 128" width="128" xmlns="http://www.w3.org/2000/svg"><path d="m28.66 79.05c0-.66.25-1.32.75-1.82l10.42-10.42c.49-.49 1.13-.75 1.82-.75s1.34.27 1.82.75l10.24 10.24v-59.81c0-1.42 1.16-2.58 2.58-2.58h14.73c1.42 0 2.58 1.16 2.58 2.58v59.81l10.24-10.24c.49-.49 1.13-.75 1.82-.75s1.34.27 1.82.75l10.42 10.42c1.01 1 1.01 2.64 0 3.65l-32.37 32.37c-.51.51-1.19.77-1.92.74-.65.03-1.33-.24-1.84-.74l-32.37-32.37c-.5-.5-.75-1.16-.75-1.82zm42.74-61.81c0-.2-.17-.37-.37-.37h-14.73c-.2 0-.37.17-.37.37v65.14l-14.01-14.01c-.14-.14-.38-.14-.52 0l-10.42 10.42c-.14.14-.14.38 0 .52l32.37 32.37c.09.09.2.1.28.1.16 0 .27-.01.36-.1l32.37-32.37c.14-.14.14-.38 0-.52l-10.42-10.42c-.14-.14-.38-.14-.52 0l-14.01 14.01v-65.14z"/></svg>