<svg height="128" viewBox="0 0 128 128" width="128" xmlns="http://www.w3.org/2000/svg"><path d="m113.3 14v18.71l-31.5 20.06-.66-15.65-22.7 16.53v-5.96l-14.99 9.48 15.65-20.93v8.38l24.9-22.48v12.56zm-86.76 36.07v8.82l9.75-4.89v20.01l-9.75-4.89v8.82c-6.27-1.16-11.85-5.56-11.85-13.93s5.57-12.77 11.85-13.93m16.92 20.76 14.99 9.48v-5.96l22.7 16.53.66-15.65 31.5 20.06v18.71l-29.3-20.7v12.56l-24.9-22.48v8.38zm72.34-61.67-3.94 2.79-25.35 17.91v-13.35l-4.18 3.77-20.72 18.71v-10.27l-4.5 6.02-15.65 20.93-2.67 3.56v-9.3l-3.62 1.82-6.13 3.07v-7.77l-2.95.55c-6.72 1.24-13.89 6.2-13.89 16.39s7.18 15.15 13.89 16.39l2.95.55v-7.77l6.13 3.07 3.62 1.82v-9.3l2.67 3.56 15.65 20.93 4.5 6.02v-10.27l20.72 18.71 4.18 3.77v-13.35l25.35 17.91 3.94 2.79v-24.91l-1.16-.74-31.5-20.06-3.66-2.33-.18 4.33-.46 10.98-18.93-13.78-3.97-2.89v6.33l-11.15-7.05-6-3.8v-1.83l6-3.8 11.15-7.05v6.33l3.97-2.89 18.93-13.78.46 10.98.18 4.33 3.66-2.33 31.5-20.06 1.16-.74z"/></svg>