<svg height="128" viewBox="0 0 128 128" width="128" xmlns="http://www.w3.org/2000/svg"><path d="m49.27 29c.66 0 1.32.25 1.82.75l10.42 10.42c.49.49.75 1.13.75 1.82s-.27 1.34-.75 1.82l-10.24 10.24h59.81c1.42 0 2.58 1.16 2.58 2.58v14.73c0 1.42-1.16 2.58-2.58 2.58h-59.81l10.24 10.24c.49.49.75 1.13.75 1.82s-.27 1.34-.75 1.82l-10.42 10.42c-1 1.01-2.64 1.01-3.65 0l-32.36-32.36c-.51-.51-.77-1.19-.74-1.92-.03-.65.24-1.33.74-1.84l32.37-32.37c.5-.5 1.16-.75 1.82-.75zm61.81 42.74c.2 0 .37-.17.37-.37v-14.73c0-.2-.17-.37-.37-.37h-65.13l14.01-14.01c.14-.14.14-.38 0-.52l-10.42-10.42c-.14-.14-.38-.14-.52 0l-32.38 32.36c-.09.09-.1.2-.1.28 0 .16.01.27.1.36l32.37 32.37c.14.14.38.14.52 0l10.42-10.42c.14-.14.14-.38 0-.52l-14.01-14.01z"/></svg>